<svg id="Слой_1" data-name="Слой 1" xmlns="http://www.w3.org/2000/svg" viewBox="0 0 180 180"><defs><style>.cls-1{fill:#fff;}</style></defs><title>Монтажная область 1</title><path class="cls-1" d="M79.1,42.6C57.6,48.4,43.6,67.7,45.3,89.5c1,12.6,7.2,24.5,16.6,31.7,2.2,1.8,4.1,3.7,4.1,4.3a44.57,44.57,0,0,1-2.4,6.7c-2.8,6.9-3,6.8,10.2,6.8,25.4,0,46.6-11.2,55.6-29.1,4.4-8.9,5.9-16.2,5.4-26.9-.3-7-1-9.8-3.6-15.3-3.7-8-12.1-17.2-19-21C102.5,41.4,89.5,39.8,79.1,42.6Zm20,14.5c11.9,3,22.1,18.4,20.5,31.3a33.73,33.73,0,0,1-9.7,19.1l-4.1,3.7,1.6,4.1c.9,2.2,1.4,4.3,1.1,4.5a56.85,56.85,0,0,1-8.8.4c-17.4-.1-31-7.9-37.1-21.1-3.1-6.7-3-20.9.2-26.8A31.37,31.37,0,0,1,84.9,56C89.6,55.3,92.8,55.5,99.1,57.1Z"/><path class="cls-1" d="M67.4,84.4c-1.5,3.8-.1,5.1,5.9,5.4l5.8.3-.3-3.3c-.3-3.2-.4-3.3-5.6-3.6C69.3,83,67.8,83.3,67.4,84.4Z"/></svg>