<svg width="118" height="214" viewBox="0 0 118 214" fill="none" xmlns="http://www.w3.org/2000/svg">
<path d="M20 22H98V172H20V22Z" fill="#43806C"/>
<path d="M45.8522 8.499C45.6008 8.22167 45.2672 7.992 44.8512 7.81C44.4438 7.628 43.9802 7.52833 43.4602 7.511V10.982C43.4775 10.982 43.4905 10.9863 43.4992 10.995C43.5165 10.995 43.5338 10.995 43.5512 10.995C44.0452 11.099 44.4872 11.216 44.8772 11.346C45.2758 11.476 45.6138 11.6407 45.8912 11.84C46.1685 12.0307 46.3808 12.2647 46.5282 12.542C46.6755 12.8193 46.7492 13.166 46.7492 13.582C46.7492 13.998 46.6668 14.362 46.5022 14.674C46.3462 14.986 46.1252 15.246 45.8392 15.454C45.5532 15.6533 45.2108 15.805 44.8122 15.909C44.4222 16.013 43.9932 16.0693 43.5252 16.078V17.339H43.0442V16.065C41.7788 16.0043 40.6695 15.5623 39.7162 14.739L40.1712 13.998C40.4745 14.3273 40.8775 14.609 41.3802 14.843C41.8915 15.077 42.4592 15.2157 43.0832 15.259V11.788L43.0052 11.762C42.5198 11.6493 42.0952 11.5323 41.7312 11.411C41.3672 11.2897 41.0595 11.138 40.8082 10.956C40.5568 10.774 40.3662 10.5573 40.2362 10.306C40.1148 10.046 40.0542 9.72967 40.0542 9.357C40.0542 8.94967 40.1278 8.59 40.2752 8.278C40.4225 7.95733 40.6262 7.68867 40.8862 7.472C41.1462 7.24667 41.4582 7.07333 41.8222 6.952C42.1948 6.822 42.6022 6.744 43.0442 6.718V5.405H43.5252V6.705C44.0972 6.72233 44.6085 6.82633 45.0592 7.017C45.5185 7.199 45.9302 7.45033 46.2942 7.771L45.8522 8.499ZM45.7872 13.673C45.7872 13.413 45.7352 13.192 45.6312 13.01C45.5358 12.828 45.3885 12.6677 45.1892 12.529C44.9985 12.3903 44.7558 12.269 44.4612 12.165C44.1752 12.061 43.8415 11.9613 43.4602 11.866V15.272C44.1968 15.272 44.7688 15.142 45.1762 14.882C45.5835 14.6133 45.7872 14.2103 45.7872 13.673ZM40.9902 9.227C40.9902 9.47833 41.0292 9.69067 41.1072 9.864C41.1938 10.0287 41.3195 10.176 41.4842 10.306C41.6575 10.4273 41.8742 10.5357 42.1342 10.631C42.4028 10.7177 42.7192 10.8043 43.0832 10.891V7.524C42.3465 7.55867 41.8135 7.72767 41.4842 8.031C41.1548 8.33433 40.9902 8.733 40.9902 9.227ZM52.549 15.194V16H48.142V15.194H49.988V9.63C49.9187 9.734 49.7973 9.84667 49.624 9.968C49.4593 10.0893 49.273 10.202 49.065 10.306C48.8657 10.41 48.6577 10.4967 48.441 10.566C48.2243 10.6353 48.0337 10.67 47.869 10.67V9.812C48.0683 9.812 48.285 9.75567 48.519 9.643C48.7617 9.53033 48.987 9.40033 49.195 9.253C49.4117 9.10567 49.5937 8.967 49.741 8.837C49.8883 8.707 49.9707 8.62033 49.988 8.577H50.898V15.194H52.549ZM53.9495 17.053L54.1705 15.961H53.8715V14.726H54.7295V15.961L54.4045 17.053H53.9495ZM63.0185 12.958C63.0185 13.4 62.9318 13.816 62.7585 14.206C62.5938 14.5873 62.3641 14.921 62.0695 15.207C61.7748 15.493 61.4281 15.7183 61.0295 15.883C60.6308 16.0477 60.2018 16.13 59.7425 16.13C59.2571 16.13 58.8108 16.0433 58.4035 15.87C57.9961 15.688 57.6451 15.4323 57.3505 15.103C57.0645 14.7737 56.8391 14.3707 56.6745 13.894C56.5098 13.4087 56.4275 12.867 56.4275 12.269C56.4275 11.333 56.5098 10.5183 56.6745 9.825C56.8391 9.123 57.0688 8.54233 57.3635 8.083C57.6668 7.615 58.0265 7.26833 58.4425 7.043C58.8585 6.81767 59.3221 6.705 59.8335 6.705C60.4488 6.705 60.9991 6.85667 61.4845 7.16C61.9698 7.46333 62.3381 7.88367 62.5895 8.421L62.0175 8.941C61.8355 8.499 61.5495 8.148 61.1595 7.888C60.7695 7.61933 60.3275 7.485 59.8335 7.485C59.4521 7.485 59.1055 7.576 58.7935 7.758C58.4815 7.94 58.2128 8.20433 57.9875 8.551C57.7708 8.889 57.5975 9.30933 57.4675 9.812C57.3461 10.3147 57.2855 10.8823 57.2855 11.515C57.4761 11.0037 57.8011 10.5963 58.2605 10.293C58.7285 9.98967 59.2571 9.838 59.8465 9.838C60.2885 9.838 60.7001 9.92033 61.0815 10.085C61.4715 10.241 61.8095 10.462 62.0955 10.748C62.3815 11.0253 62.6068 11.3547 62.7715 11.736C62.9361 12.1173 63.0185 12.5247 63.0185 12.958ZM59.7685 15.35C60.0978 15.35 60.4055 15.2893 60.6915 15.168C60.9861 15.038 61.2418 14.8647 61.4585 14.648C61.6838 14.4313 61.8571 14.18 61.9785 13.894C62.1085 13.5993 62.1735 13.2873 62.1735 12.958C62.1735 12.6287 62.1085 12.321 61.9785 12.035C61.8485 11.7403 61.6708 11.4847 61.4455 11.268C61.2288 11.0513 60.9731 10.8823 60.6785 10.761C60.3925 10.631 60.0848 10.566 59.7555 10.566C59.4261 10.566 59.1141 10.631 58.8195 10.761C58.5335 10.8823 58.2778 11.0513 58.0525 11.268C57.8358 11.4847 57.6625 11.7403 57.5325 12.035C57.4111 12.321 57.3505 12.6287 57.3505 12.958C57.3505 13.2873 57.4155 13.595 57.5455 13.881C57.6755 14.167 57.8488 14.4227 58.0655 14.648C58.2908 14.8647 58.5465 15.038 58.8325 15.168C59.1271 15.2893 59.4391 15.35 59.7685 15.35ZM68.2125 17.651V15.337H63.8835V14.557L68.4985 8.577H69.0965V14.531H70.2405V15.337H69.0965V17.651H68.2125ZM64.8195 14.531H68.3035V9.968L64.8195 14.531ZM75.3092 17.651V15.337H70.9802V14.557L75.5952 8.577H76.1932V14.531H77.3372V15.337H76.1932V17.651H75.3092ZM71.9162 14.531H75.4002V9.968L71.9162 14.531Z" fill="#214E41"/>
<path d="M27.8165 208V198.77H31.1705C31.9245 198.77 32.5832 198.891 33.1465 199.134C33.7185 199.377 34.1952 199.706 34.5765 200.122C34.9578 200.538 35.2438 201.028 35.4345 201.591C35.6252 202.146 35.7205 202.739 35.7205 203.372C35.7205 204.074 35.6122 204.711 35.3955 205.283C35.1875 205.846 34.8842 206.332 34.4855 206.739C34.0868 207.138 33.6058 207.45 33.0425 207.675C32.4878 207.892 31.8638 208 31.1705 208H27.8165ZM33.9135 203.372C33.9135 202.93 33.8528 202.523 33.7315 202.15C33.6102 201.777 33.4325 201.457 33.1985 201.188C32.9645 200.919 32.6742 200.711 32.3275 200.564C31.9895 200.417 31.6038 200.343 31.1705 200.343H29.6105V206.427H31.1705C31.6125 206.427 32.0025 206.349 32.3405 206.193C32.6872 206.037 32.9732 205.825 33.1985 205.556C33.4325 205.279 33.6102 204.954 33.7315 204.581C33.8528 204.208 33.9135 203.805 33.9135 203.372ZM40.1122 208.13C39.5662 208.13 39.0722 208.039 38.6302 207.857C38.1882 207.666 37.8112 207.411 37.4992 207.09C37.1872 206.769 36.9445 206.397 36.7712 205.972C36.6065 205.547 36.5242 205.101 36.5242 204.633C36.5242 204.148 36.6065 203.693 36.7712 203.268C36.9358 202.835 37.1742 202.458 37.4862 202.137C37.7982 201.808 38.1752 201.548 38.6172 201.357C39.0678 201.166 39.5705 201.071 40.1252 201.071C40.6798 201.071 41.1738 201.166 41.6072 201.357C42.0492 201.548 42.4218 201.803 42.7252 202.124C43.0372 202.445 43.2712 202.817 43.4272 203.242C43.5918 203.667 43.6742 204.109 43.6742 204.568C43.6742 204.681 43.6698 204.789 43.6612 204.893C43.6612 204.997 43.6525 205.084 43.6352 205.153H38.3702C38.3962 205.422 38.4612 205.66 38.5652 205.868C38.6692 206.076 38.8035 206.254 38.9682 206.401C39.1328 206.548 39.3192 206.661 39.5272 206.739C39.7352 206.817 39.9518 206.856 40.1772 206.856C40.5238 206.856 40.8488 206.774 41.1522 206.609C41.4642 206.436 41.6765 206.21 41.7892 205.933L43.2842 206.349C43.0328 206.869 42.6298 207.298 42.0752 207.636C41.5292 207.965 40.8748 208.13 40.1122 208.13ZM41.8802 204.022C41.8368 203.511 41.6462 203.103 41.3082 202.8C40.9788 202.488 40.5758 202.332 40.0992 202.332C39.8652 202.332 39.6442 202.375 39.4362 202.462C39.2368 202.54 39.0592 202.653 38.9032 202.8C38.7472 202.947 38.6172 203.125 38.5132 203.333C38.4178 203.541 38.3615 203.771 38.3442 204.022H41.8802ZM47.5564 208.13C47.0884 208.13 46.655 208.039 46.2564 207.857C45.8577 207.675 45.5154 207.424 45.2294 207.103C44.9434 206.782 44.718 206.41 44.5534 205.985C44.3974 205.552 44.3194 205.088 44.3194 204.594C44.3194 204.1 44.393 203.641 44.5404 203.216C44.6964 202.791 44.9087 202.419 45.1774 202.098C45.446 201.777 45.7667 201.526 46.1394 201.344C46.512 201.162 46.9194 201.071 47.3614 201.071C47.864 201.071 48.3147 201.192 48.7134 201.435C49.1207 201.678 49.437 201.994 49.6624 202.384V198.51H51.4044V205.998C51.4044 206.18 51.4347 206.31 51.4954 206.388C51.556 206.466 51.66 206.509 51.8074 206.518V208C51.5041 208.061 51.2571 208.091 51.0664 208.091C50.7544 208.091 50.4987 208.013 50.2994 207.857C50.1 207.701 49.9874 207.497 49.9614 207.246L49.9224 206.817C49.671 207.25 49.3287 207.58 48.8954 207.805C48.4707 208.022 48.0244 208.13 47.5564 208.13ZM48.0114 206.648C48.176 206.648 48.345 206.622 48.5184 206.57C48.6917 206.509 48.852 206.427 48.9994 206.323C49.1467 206.219 49.2767 206.098 49.3894 205.959C49.5107 205.82 49.6017 205.669 49.6624 205.504V203.879C49.593 203.688 49.4934 203.515 49.3634 203.359C49.242 203.194 49.099 203.056 48.9344 202.943C48.7784 202.822 48.6094 202.726 48.4274 202.657C48.254 202.588 48.0807 202.553 47.9074 202.553C47.6474 202.553 47.4047 202.609 47.1794 202.722C46.9627 202.835 46.7764 202.991 46.6204 203.19C46.4644 203.381 46.343 203.602 46.2564 203.853C46.1697 204.104 46.1264 204.364 46.1264 204.633C46.1264 204.919 46.174 205.183 46.2694 205.426C46.3647 205.669 46.4947 205.881 46.6594 206.063C46.824 206.245 47.019 206.388 47.2444 206.492C47.4784 206.596 47.734 206.648 48.0114 206.648ZM55.1943 208.13C54.4923 208.13 53.9593 207.905 53.5953 207.454C53.2313 207.003 53.0493 206.336 53.0493 205.452V201.188H54.7913V205.075C54.7913 206.124 55.1683 206.648 55.9223 206.648C56.2603 206.648 56.5853 206.548 56.8973 206.349C57.218 206.141 57.478 205.829 57.6773 205.413V201.188H59.4193V205.998C59.4193 206.18 59.4496 206.31 59.5103 206.388C59.5796 206.466 59.688 206.509 59.8353 206.518V208C59.662 208.035 59.5146 208.056 59.3933 208.065C59.2806 208.074 59.1766 208.078 59.0813 208.078C58.7693 208.078 58.5136 208.009 58.3143 207.87C58.1236 207.723 58.011 207.523 57.9763 207.272L57.9373 206.726C57.634 207.194 57.244 207.545 56.7673 207.779C56.2906 208.013 55.7663 208.13 55.1943 208.13ZM60.7214 204.594C60.7214 204.117 60.8038 203.667 60.9684 203.242C61.1331 202.817 61.3714 202.445 61.6834 202.124C61.9954 201.803 62.3724 201.548 62.8144 201.357C63.2564 201.166 63.7548 201.071 64.3094 201.071C65.0548 201.071 65.6874 201.231 66.2074 201.552C66.7361 201.873 67.1304 202.293 67.3904 202.813L65.6874 203.333C65.5401 203.082 65.3451 202.891 65.1024 202.761C64.8598 202.622 64.5911 202.553 64.2964 202.553C64.0451 202.553 63.8111 202.605 63.5944 202.709C63.3778 202.804 63.1871 202.943 63.0224 203.125C62.8664 203.298 62.7408 203.511 62.6454 203.762C62.5588 204.013 62.5154 204.291 62.5154 204.594C62.5154 204.897 62.5631 205.175 62.6584 205.426C62.7538 205.677 62.8794 205.894 63.0354 206.076C63.2001 206.258 63.3908 206.401 63.6074 206.505C63.8241 206.6 64.0538 206.648 64.2964 206.648C64.6084 206.648 64.8944 206.57 65.1544 206.414C65.4231 206.258 65.6094 206.067 65.7134 205.842L67.4164 206.362C67.1824 206.882 66.7968 207.307 66.2594 207.636C65.7221 207.965 65.0764 208.13 64.3224 208.13C63.7678 208.13 63.2694 208.035 62.8274 207.844C62.3854 207.653 62.0084 207.398 61.6964 207.077C61.3844 206.748 61.1418 206.371 60.9684 205.946C60.8038 205.513 60.7214 205.062 60.7214 204.594ZM72.5703 207.649C72.3363 207.753 72.0503 207.857 71.7123 207.961C71.3743 208.065 71.019 208.117 70.6463 208.117C70.4036 208.117 70.174 208.087 69.9573 208.026C69.7493 207.965 69.563 207.87 69.3983 207.74C69.2423 207.601 69.1166 207.428 69.0213 207.22C68.926 207.003 68.8783 206.743 68.8783 206.44V202.527H67.9813V201.188H68.8783V198.978H70.6203V201.188H72.0503V202.527H70.6203V205.855C70.6203 206.098 70.681 206.271 70.8023 206.375C70.9323 206.47 71.0883 206.518 71.2703 206.518C71.4523 206.518 71.63 206.488 71.8033 206.427C71.9766 206.366 72.1153 206.314 72.2193 206.271L72.5703 207.649ZM73.4776 208V201.188H75.2196V208H73.4776ZM73.4776 200.239V198.51H75.2196V200.239H73.4776ZM80.665 208.13C80.145 208.13 79.6814 208.013 79.274 207.779C78.8667 207.545 78.546 207.224 78.312 206.817V208H76.791V198.51H78.533V202.384C78.7757 201.968 79.092 201.647 79.482 201.422C79.8807 201.188 80.3444 201.071 80.873 201.071C81.315 201.071 81.718 201.166 82.082 201.357C82.446 201.548 82.758 201.803 83.018 202.124C83.2867 202.445 83.4904 202.822 83.629 203.255C83.7764 203.688 83.85 204.143 83.85 204.62C83.85 205.114 83.7677 205.573 83.603 205.998C83.447 206.423 83.226 206.795 82.94 207.116C82.654 207.428 82.316 207.675 81.926 207.857C81.536 208.039 81.1157 208.13 80.665 208.13ZM80.184 206.648C80.4614 206.648 80.717 206.596 80.951 206.492C81.185 206.379 81.3844 206.232 81.549 206.05C81.7137 205.868 81.8394 205.656 81.926 205.413C82.0214 205.17 82.069 204.91 82.069 204.633C82.069 204.356 82.0257 204.091 81.939 203.84C81.8524 203.589 81.7267 203.368 81.562 203.177C81.406 202.986 81.2197 202.835 81.003 202.722C80.7864 202.609 80.548 202.553 80.288 202.553C79.898 202.553 79.547 202.683 79.235 202.943C78.9317 203.194 78.6977 203.506 78.533 203.879V205.504C78.5937 205.677 78.6804 205.833 78.793 205.972C78.9144 206.111 79.0487 206.232 79.196 206.336C79.3434 206.431 79.5037 206.509 79.677 206.57C79.8504 206.622 80.0194 206.648 80.184 206.648ZM85.0173 198.51H86.7593V205.816C86.7593 206.067 86.82 206.262 86.9413 206.401C87.0626 206.54 87.236 206.609 87.4613 206.609C87.5653 206.609 87.678 206.592 87.7993 206.557C87.9293 206.522 88.0506 206.479 88.1633 206.427L88.3973 207.753C88.1633 207.866 87.8903 207.952 87.5783 208.013C87.2663 208.074 86.9846 208.104 86.7333 208.104C86.1873 208.104 85.7626 207.961 85.4593 207.675C85.1646 207.38 85.0173 206.964 85.0173 206.427V198.51ZM92.3153 208.13C91.7693 208.13 91.2753 208.039 90.8333 207.857C90.3913 207.666 90.0143 207.411 89.7023 207.09C89.3903 206.769 89.1476 206.397 88.9743 205.972C88.8096 205.547 88.7273 205.101 88.7273 204.633C88.7273 204.148 88.8096 203.693 88.9743 203.268C89.1389 202.835 89.3773 202.458 89.6893 202.137C90.0013 201.808 90.3783 201.548 90.8203 201.357C91.2709 201.166 91.7736 201.071 92.3283 201.071C92.8829 201.071 93.3769 201.166 93.8103 201.357C94.2523 201.548 94.6249 201.803 94.9283 202.124C95.2403 202.445 95.4743 202.817 95.6303 203.242C95.7949 203.667 95.8773 204.109 95.8773 204.568C95.8773 204.681 95.8729 204.789 95.8643 204.893C95.8643 204.997 95.8556 205.084 95.8383 205.153H90.5733C90.5993 205.422 90.6643 205.66 90.7683 205.868C90.8723 206.076 91.0066 206.254 91.1713 206.401C91.3359 206.548 91.5223 206.661 91.7303 206.739C91.9383 206.817 92.1549 206.856 92.3803 206.856C92.7269 206.856 93.0519 206.774 93.3553 206.609C93.6673 206.436 93.8796 206.21 93.9923 205.933L95.4873 206.349C95.2359 206.869 94.8329 207.298 94.2783 207.636C93.7323 207.965 93.0779 208.13 92.3153 208.13ZM94.0833 204.022C94.0399 203.511 93.8493 203.103 93.5113 202.8C93.1819 202.488 92.7789 202.332 92.3023 202.332C92.0683 202.332 91.8473 202.375 91.6393 202.462C91.4399 202.54 91.2623 202.653 91.1063 202.8C90.9503 202.947 90.8203 203.125 90.7163 203.333C90.6209 203.541 90.5646 203.771 90.5473 204.022H94.0833Z" fill="#214E41"/>
</svg>
