<svg width="118" height="364" viewBox="0 0 118 364" fill="none" xmlns="http://www.w3.org/2000/svg">
<path d="M21 22H99V322H21V22Z" fill="#43806C"/>
<path d="M45.8365 8.499C45.5852 8.22167 45.2515 7.992 44.8355 7.81C44.4282 7.628 43.9645 7.52833 43.4445 7.511V10.982C43.4619 10.982 43.4749 10.9863 43.4835 10.995C43.5009 10.995 43.5182 10.995 43.5355 10.995C44.0295 11.099 44.4715 11.216 44.8615 11.346C45.2602 11.476 45.5982 11.6407 45.8755 11.84C46.1529 12.0307 46.3652 12.2647 46.5125 12.542C46.6599 12.8193 46.7335 13.166 46.7335 13.582C46.7335 13.998 46.6512 14.362 46.4865 14.674C46.3305 14.986 46.1095 15.246 45.8235 15.454C45.5375 15.6533 45.1952 15.805 44.7965 15.909C44.4065 16.013 43.9775 16.0693 43.5095 16.078V17.339H43.0285V16.065C41.7632 16.0043 40.6539 15.5623 39.7005 14.739L40.1555 13.998C40.4589 14.3273 40.8619 14.609 41.3645 14.843C41.8759 15.077 42.4435 15.2157 43.0675 15.259V11.788L42.9895 11.762C42.5042 11.6493 42.0795 11.5323 41.7155 11.411C41.3515 11.2897 41.0439 11.138 40.7925 10.956C40.5412 10.774 40.3505 10.5573 40.2205 10.306C40.0992 10.046 40.0385 9.72967 40.0385 9.357C40.0385 8.94967 40.1122 8.59 40.2595 8.278C40.4069 7.95733 40.6105 7.68867 40.8705 7.472C41.1305 7.24667 41.4425 7.07333 41.8065 6.952C42.1792 6.822 42.5865 6.744 43.0285 6.718V5.405H43.5095V6.705C44.0815 6.72233 44.5929 6.82633 45.0435 7.017C45.5029 7.199 45.9145 7.45033 46.2785 7.771L45.8365 8.499ZM45.7715 13.673C45.7715 13.413 45.7195 13.192 45.6155 13.01C45.5202 12.828 45.3729 12.6677 45.1735 12.529C44.9829 12.3903 44.7402 12.269 44.4455 12.165C44.1595 12.061 43.8259 11.9613 43.4445 11.866V15.272C44.1812 15.272 44.7532 15.142 45.1605 14.882C45.5679 14.6133 45.7715 14.2103 45.7715 13.673ZM40.9745 9.227C40.9745 9.47833 41.0135 9.69067 41.0915 9.864C41.1782 10.0287 41.3039 10.176 41.4685 10.306C41.6419 10.4273 41.8585 10.5357 42.1185 10.631C42.3872 10.7177 42.7035 10.8043 43.0675 10.891V7.524C42.3309 7.55867 41.7979 7.72767 41.4685 8.031C41.1392 8.33433 40.9745 8.733 40.9745 9.227ZM51.8834 17.651V15.337H47.5544V14.557L52.1694 8.577H52.7674V14.531H53.9114V15.337H52.7674V17.651H51.8834ZM48.4904 14.531H51.9744V9.968L48.4904 14.531ZM55.4701 17.053L55.6911 15.961H55.3921V14.726H56.2501V15.961L55.9251 17.053H55.4701ZM64.513 12.191C64.513 12.763 64.4306 13.2917 64.266 13.777C64.1013 14.2537 63.8716 14.6697 63.577 15.025C63.291 15.3717 62.9486 15.6447 62.55 15.844C62.1513 16.0347 61.718 16.13 61.25 16.13C60.782 16.13 60.3486 16.0347 59.95 15.844C59.5513 15.6447 59.2046 15.3717 58.91 15.025C58.624 14.6697 58.3986 14.2537 58.234 13.777C58.0693 13.2917 57.987 12.763 57.987 12.191C57.987 11.619 58.0693 11.0947 58.234 10.618C58.3986 10.1327 58.624 9.71667 58.91 9.37C59.2046 9.01467 59.5513 8.73733 59.95 8.538C60.3486 8.33867 60.782 8.239 61.25 8.239C61.718 8.239 62.1513 8.33867 62.55 8.538C62.9486 8.73733 63.291 9.01467 63.577 9.37C63.8716 9.71667 64.1013 10.1327 64.266 10.618C64.4306 11.0947 64.513 11.619 64.513 12.191ZM63.616 12.191C63.616 11.723 63.5553 11.2983 63.434 10.917C63.3213 10.5357 63.161 10.2107 62.953 9.942C62.745 9.66467 62.4936 9.45233 62.199 9.305C61.913 9.149 61.5966 9.071 61.25 9.071C60.8946 9.071 60.5696 9.149 60.275 9.305C59.989 9.45233 59.742 9.66467 59.534 9.942C59.326 10.2107 59.1613 10.5357 59.04 10.917C58.9273 11.2983 58.871 11.723 58.871 12.191C58.871 12.659 58.9273 13.0837 59.04 13.465C59.1613 13.8463 59.326 14.1757 59.534 14.453C59.742 14.7217 59.989 14.9297 60.275 15.077C60.5696 15.2243 60.8946 15.298 61.25 15.298C61.5966 15.298 61.913 15.2243 62.199 15.077C62.4936 14.9297 62.745 14.7217 62.953 14.453C63.161 14.1757 63.3213 13.8463 63.434 13.465C63.5553 13.0837 63.616 12.659 63.616 12.191ZM69.6909 12.932C70.2629 13.0273 70.7179 13.2873 71.0559 13.712C71.4026 14.1367 71.5759 14.661 71.5759 15.285C71.5759 15.675 71.5023 16.0303 71.3549 16.351C71.2163 16.6803 71.0126 16.9577 70.7439 17.183C70.4839 17.417 70.1676 17.5947 69.7949 17.716C69.4309 17.846 69.0236 17.911 68.5729 17.911C67.9143 17.911 67.3379 17.7767 66.8439 17.508C66.3499 17.248 65.9773 16.884 65.7259 16.416L66.3369 15.857C66.5189 16.2383 66.7963 16.5417 67.1689 16.767C67.5416 16.9923 68.0096 17.105 68.5729 17.105C69.2229 17.105 69.7343 16.9447 70.1069 16.624C70.4796 16.312 70.6659 15.8613 70.6659 15.272C70.6659 14.674 70.4709 14.2017 70.0809 13.855C69.6909 13.5083 69.1276 13.335 68.3909 13.335H68.0659V12.581H68.4169C69.0843 12.581 69.5956 12.4293 69.9509 12.126C70.3063 11.814 70.4839 11.411 70.4839 10.917C70.4839 10.657 70.4363 10.4273 70.3409 10.228C70.2456 10.0287 70.1113 9.864 69.9379 9.734C69.7733 9.59533 69.5739 9.49133 69.3399 9.422C69.1146 9.35267 68.8676 9.318 68.5989 9.318C68.1049 9.318 67.6673 9.43067 67.2859 9.656C66.9133 9.87267 66.6316 10.176 66.4409 10.566L65.8689 10.02C65.9729 9.79467 66.1203 9.591 66.3109 9.409C66.5016 9.21833 66.7183 9.058 66.9609 8.928C67.2036 8.798 67.4723 8.69833 67.7669 8.629C68.0616 8.551 68.3649 8.512 68.6769 8.512C69.0756 8.512 69.4396 8.56833 69.7689 8.681C70.1069 8.79367 70.3973 8.954 70.6399 9.162C70.8826 9.36133 71.0689 9.604 71.1989 9.89C71.3376 10.176 71.4069 10.4923 71.4069 10.839C71.4069 11.099 71.3679 11.3503 71.2899 11.593C71.2119 11.827 71.0993 12.0393 70.9519 12.23C70.8046 12.412 70.6226 12.568 70.4059 12.698C70.1979 12.8193 69.9596 12.8973 69.6909 12.932ZM72.6443 11.749C72.6443 11.307 72.7266 10.8953 72.8913 10.514C73.0646 10.124 73.2986 9.786 73.5933 9.5C73.8879 9.214 74.2346 8.98867 74.6333 8.824C75.0319 8.65933 75.4609 8.577 75.9203 8.577C76.4056 8.577 76.8519 8.668 77.2593 8.85C77.6666 9.02333 78.0133 9.27467 78.2993 9.604C78.5939 9.93333 78.8236 10.3407 78.9883 10.826C79.1529 11.3027 79.2353 11.84 79.2353 12.438C79.2353 13.374 79.1529 14.193 78.9883 14.895C78.8236 15.5883 78.5896 16.1647 78.2863 16.624C77.9916 17.092 77.6319 17.4387 77.2073 17.664C76.7913 17.8893 76.3319 18.002 75.8293 18.002C75.2226 18.002 74.6723 17.8503 74.1783 17.547C73.6929 17.2437 73.3246 16.8233 73.0733 16.286L73.6453 15.766C73.8273 16.208 74.1133 16.559 74.5033 16.819C74.9019 17.0877 75.3439 17.222 75.8293 17.222C76.2106 17.222 76.5573 17.131 76.8693 16.949C77.1813 16.767 77.4499 16.5027 77.6753 16.156C77.9006 15.818 78.0739 15.402 78.1953 14.908C78.3166 14.4053 78.3816 13.8333 78.3903 13.192C78.1909 13.7033 77.8573 14.1107 77.3893 14.414C76.9299 14.7173 76.4056 14.869 75.8163 14.869C75.3743 14.869 74.9583 14.791 74.5683 14.635C74.1869 14.4703 73.8533 14.2493 73.5673 13.972C73.2813 13.686 73.0559 13.3523 72.8913 12.971C72.7266 12.5897 72.6443 12.1823 72.6443 11.749ZM75.9073 9.357C75.5779 9.357 75.2659 9.422 74.9713 9.552C74.6853 9.67333 74.4296 9.84233 74.2043 10.059C73.9876 10.2757 73.8143 10.5313 73.6843 10.826C73.5543 11.112 73.4893 11.4197 73.4893 11.749C73.4893 12.0783 73.5543 12.3903 73.6843 12.685C73.8143 12.971 73.9876 13.2223 74.2043 13.439C74.4296 13.6557 74.6853 13.829 74.9713 13.959C75.2659 14.0803 75.5779 14.141 75.9073 14.141C76.2366 14.141 76.5486 14.0803 76.8433 13.959C77.1379 13.829 77.3936 13.6557 77.6103 13.439C77.8269 13.2223 77.9959 12.971 78.1173 12.685C78.2473 12.3903 78.3123 12.0783 78.3123 11.749C78.3123 11.4283 78.2473 11.125 78.1173 10.839C77.9959 10.5443 77.8226 10.2887 77.5973 10.072C77.3806 9.84667 77.1249 9.67333 76.8303 9.552C76.5443 9.422 76.2366 9.357 75.9073 9.357Z" fill="#214E41"/>
<path d="M31.9254 348.77H33.5114L37.0214 358H35.1754L34.3174 355.699H31.0934L30.2484 358H28.4024L31.9254 348.77ZM33.9924 354.438L32.7184 350.811L31.3924 354.438H33.9924ZM44.1958 358H42.4538V354.178C42.4538 353.632 42.3584 353.233 42.1678 352.982C41.9771 352.731 41.7128 352.605 41.3748 352.605C41.2014 352.605 41.0238 352.64 40.8418 352.709C40.6598 352.778 40.4864 352.878 40.3218 353.008C40.1658 353.129 40.0228 353.277 39.8928 353.45C39.7628 353.623 39.6674 353.814 39.6068 354.022V358H37.8648V351.188H39.4378V352.449C39.6891 352.016 40.0531 351.678 40.5298 351.435C41.0064 351.192 41.5438 351.071 42.1418 351.071C42.5664 351.071 42.9131 351.149 43.1818 351.305C43.4504 351.461 43.6584 351.665 43.8058 351.916C43.9531 352.167 44.0528 352.453 44.1048 352.774C44.1654 353.095 44.1958 353.42 44.1958 353.749V358ZM52.0415 358H50.2995V354.178C50.2995 353.632 50.2041 353.233 50.0135 352.982C49.8228 352.731 49.5585 352.605 49.2205 352.605C49.0471 352.605 48.8695 352.64 48.6875 352.709C48.5055 352.778 48.3321 352.878 48.1675 353.008C48.0115 353.129 47.8685 353.277 47.7385 353.45C47.6085 353.623 47.5131 353.814 47.4525 354.022V358H45.7105V351.188H47.2835V352.449C47.5348 352.016 47.8988 351.678 48.3755 351.435C48.8521 351.192 49.3895 351.071 49.9875 351.071C50.4121 351.071 50.7588 351.149 51.0275 351.305C51.2961 351.461 51.5041 351.665 51.6515 351.916C51.7988 352.167 51.8985 352.453 51.9505 352.774C52.0111 353.095 52.0415 353.42 52.0415 353.749V358ZM55.6362 358.13C54.9342 358.13 54.4012 357.905 54.0372 357.454C53.6732 357.003 53.4912 356.336 53.4912 355.452V351.188H55.2332V355.075C55.2332 356.124 55.6102 356.648 56.3642 356.648C56.7022 356.648 57.0272 356.548 57.3392 356.349C57.6599 356.141 57.9199 355.829 58.1192 355.413V351.188H59.8612V355.998C59.8612 356.18 59.8915 356.31 59.9522 356.388C60.0215 356.466 60.1299 356.509 60.2772 356.518V358C60.1039 358.035 59.9565 358.056 59.8352 358.065C59.7225 358.074 59.6185 358.078 59.5232 358.078C59.2112 358.078 58.9555 358.009 58.7562 357.87C58.5655 357.723 58.4529 357.523 58.4182 357.272L58.3792 356.726C58.0759 357.194 57.6859 357.545 57.2092 357.779C56.7325 358.013 56.2082 358.13 55.6362 358.13ZM63.4513 358.13C63.122 358.13 62.8143 358.078 62.5283 357.974C62.2423 357.861 61.9953 357.71 61.7873 357.519C61.5793 357.32 61.4146 357.09 61.2933 356.83C61.1806 356.57 61.1243 356.284 61.1243 355.972C61.1243 355.651 61.1936 355.357 61.3323 355.088C61.4796 354.811 61.679 354.577 61.9303 354.386C62.1903 354.195 62.498 354.048 62.8533 353.944C63.2086 353.831 63.5986 353.775 64.0233 353.775C64.3266 353.775 64.6213 353.801 64.9073 353.853C65.202 353.905 65.462 353.979 65.6873 354.074V353.684C65.6873 353.233 65.5573 352.887 65.2973 352.644C65.046 352.401 64.669 352.28 64.1663 352.28C63.8023 352.28 63.447 352.345 63.1003 352.475C62.7536 352.605 62.3983 352.796 62.0343 353.047L61.5013 351.942C62.3766 351.361 63.3213 351.071 64.3353 351.071C65.3146 351.071 66.073 351.314 66.6103 351.799C67.1563 352.276 67.4293 352.969 67.4293 353.879V355.998C67.4293 356.18 67.4597 356.31 67.5203 356.388C67.5897 356.466 67.698 356.509 67.8453 356.518V358C67.5507 358.061 67.295 358.091 67.0783 358.091C66.749 358.091 66.4933 358.017 66.3113 357.87C66.138 357.723 66.0296 357.528 65.9863 357.285L65.9473 356.908C65.644 357.307 65.2757 357.61 64.8423 357.818C64.409 358.026 63.9453 358.13 63.4513 358.13ZM63.9453 356.856C64.24 356.856 64.5173 356.804 64.7773 356.7C65.046 356.596 65.254 356.457 65.4013 356.284C65.592 356.137 65.6873 355.972 65.6873 355.79V355.01C65.4793 354.932 65.254 354.871 65.0113 354.828C64.7686 354.776 64.5346 354.75 64.3093 354.75C63.8586 354.75 63.4903 354.854 63.2043 355.062C62.9183 355.261 62.7753 355.517 62.7753 355.829C62.7753 356.124 62.888 356.371 63.1133 356.57C63.3386 356.761 63.616 356.856 63.9453 356.856ZM69.0442 348.51H70.7862V355.816C70.7862 356.067 70.8468 356.262 70.9682 356.401C71.0895 356.54 71.2628 356.609 71.4882 356.609C71.5922 356.609 71.7048 356.592 71.8262 356.557C71.9562 356.522 72.0775 356.479 72.1902 356.427L72.4242 357.753C72.1902 357.866 71.9172 357.952 71.6052 358.013C71.2932 358.074 71.0115 358.104 70.7602 358.104C70.2142 358.104 69.7895 357.961 69.4862 357.675C69.1915 357.38 69.0442 356.964 69.0442 356.427V348.51ZM83.5959 358V351.89L81.2169 356.44H80.2419L77.8629 351.89V358H76.0689V348.77H77.9929L80.7229 354.022L83.4789 348.77H85.3899V358H83.5959ZM88.9435 358.13C88.6142 358.13 88.3065 358.078 88.0205 357.974C87.7345 357.861 87.4875 357.71 87.2795 357.519C87.0715 357.32 86.9068 357.09 86.7855 356.83C86.6728 356.57 86.6165 356.284 86.6165 355.972C86.6165 355.651 86.6858 355.357 86.8245 355.088C86.9718 354.811 87.1712 354.577 87.4225 354.386C87.6825 354.195 87.9902 354.048 88.3455 353.944C88.7008 353.831 89.0908 353.775 89.5155 353.775C89.8188 353.775 90.1135 353.801 90.3995 353.853C90.6942 353.905 90.9542 353.979 91.1795 354.074V353.684C91.1795 353.233 91.0495 352.887 90.7895 352.644C90.5382 352.401 90.1612 352.28 89.6585 352.28C89.2945 352.28 88.9392 352.345 88.5925 352.475C88.2458 352.605 87.8905 352.796 87.5265 353.047L86.9935 351.942C87.8688 351.361 88.8135 351.071 89.8275 351.071C90.8068 351.071 91.5652 351.314 92.1025 351.799C92.6485 352.276 92.9215 352.969 92.9215 353.879V355.998C92.9215 356.18 92.9518 356.31 93.0125 356.388C93.0818 356.466 93.1902 356.509 93.3375 356.518V358C93.0428 358.061 92.7872 358.091 92.5705 358.091C92.2412 358.091 91.9855 358.017 91.8035 357.87C91.6302 357.723 91.5218 357.528 91.4785 357.285L91.4395 356.908C91.1362 357.307 90.7678 357.61 90.3345 357.818C89.9012 358.026 89.4375 358.13 88.9435 358.13ZM89.4375 356.856C89.7322 356.856 90.0095 356.804 90.2695 356.7C90.5382 356.596 90.7462 356.457 90.8935 356.284C91.0842 356.137 91.1795 355.972 91.1795 355.79V355.01C90.9715 354.932 90.7462 354.871 90.5035 354.828C90.2608 354.776 90.0268 354.75 89.8015 354.75C89.3508 354.75 88.9825 354.854 88.6965 355.062C88.4105 355.261 88.2675 355.517 88.2675 355.829C88.2675 356.124 88.3802 356.371 88.6055 356.57C88.8308 356.761 89.1082 356.856 89.4375 356.856ZM95.6283 351.188L97.0973 353.32L97.2013 353.554L97.3313 353.32L98.7873 351.188H100.581L98.1503 354.607L100.62 358H98.8263L97.3183 355.881L97.2013 355.66L97.0973 355.881L95.6023 358H93.8083L96.2653 354.607L93.8473 351.188H95.6283Z" fill="#214E41"/>
</svg>
