<svg width="30" height="30" viewBox="0 0 30 30" fill="none" xmlns="http://www.w3.org/2000/svg">
<path d="M26.1836 10.3811C26.171 9.43435 25.9938 8.49704 25.6598 7.61107C25.3703 6.86376 24.928 6.18507 24.3613 5.61836C23.7946 5.05165 23.1159 4.60939 22.3686 4.31982C21.494 3.99152 20.5701 3.814 19.6361 3.79482C18.4336 3.74107 18.0523 3.72607 14.9998 3.72607C11.9473 3.72607 11.5561 3.72607 10.3623 3.79482C9.42879 3.81414 8.50528 3.99166 7.63109 4.31982C6.88367 4.60919 6.20487 5.05138 5.63813 5.61812C5.0714 6.18485 4.62921 6.86365 4.33984 7.61107C4.01088 8.48499 3.83375 9.40871 3.81609 10.3423C3.76234 11.5461 3.74609 11.9273 3.74609 14.9798C3.74609 18.0323 3.74609 18.4223 3.81609 19.6173C3.83484 20.5523 4.01109 21.4748 4.33984 22.3511C4.62969 23.0983 5.07221 23.7768 5.63914 24.3433C6.20606 24.9098 6.88492 25.3518 7.63234 25.6411C8.50414 25.9826 9.42781 26.1728 10.3636 26.2036C11.5673 26.2573 11.9486 26.2736 15.0011 26.2736C18.0536 26.2736 18.4448 26.2736 19.6386 26.2036C20.5725 26.1852 21.4965 26.0081 22.3711 25.6798C23.1182 25.3899 23.7967 24.9475 24.3634 24.3809C24.9301 23.8142 25.3724 23.1357 25.6623 22.3886C25.9911 21.5136 26.1673 20.5911 26.1861 19.6548C26.2398 18.4523 26.2561 18.0711 26.2561 15.0173C26.2536 11.9648 26.2536 11.5773 26.1836 10.3811ZM14.9923 20.7523C11.7998 20.7523 9.21359 18.1661 9.21359 14.9736C9.21359 11.7811 11.7998 9.19482 14.9923 9.19482C16.525 9.19482 17.9948 9.80366 19.0785 10.8874C20.1623 11.9711 20.7711 13.441 20.7711 14.9736C20.7711 16.5062 20.1623 17.976 19.0785 19.0598C17.9948 20.1435 16.525 20.7523 14.9923 20.7523ZM21.0011 10.3286C20.2548 10.3286 19.6536 9.72607 19.6536 8.98107C19.6536 8.8042 19.6884 8.62906 19.7561 8.46565C19.8238 8.30224 19.923 8.15376 20.0481 8.02869C20.1732 7.90362 20.3216 7.80441 20.485 7.73672C20.6485 7.66904 20.8236 7.6342 21.0005 7.6342C21.1773 7.6342 21.3525 7.66904 21.5159 7.73672C21.6793 7.80441 21.8278 7.90362 21.9529 8.02869C22.0779 8.15376 22.1771 8.30224 22.2448 8.46565C22.3125 8.62906 22.3473 8.8042 22.3473 8.98107C22.3473 9.72607 21.7448 10.3286 21.0011 10.3286Z" fill="black"/>
<path d="M14.992 18.7277C17.0652 18.7277 18.7458 17.0471 18.7458 14.974C18.7458 12.9008 17.0652 11.2202 14.992 11.2202C12.9189 11.2202 11.2383 12.9008 11.2383 14.974C11.2383 17.0471 12.9189 18.7277 14.992 18.7277Z" fill="black"/>
</svg>
